<svg xmlns="http://www.w3.org/2000/svg" width="24" height="24" fill="none" viewBox="0 0 24 24"><mask id="a" width="20" height="20" x="2" y="3" maskUnits="userSpaceOnUse" style="mask-type:alpha"><path fill="#91ede9" d="M21.167 13a9.167 9.167 0 1 0-18.334 0 9.167 9.167 0 0 0 18.334 0"/></mask><g mask="url(#a)"><path fill="#4775d1" d="M21.992 22.442h-19.8v-3.988s1.76-1.448 2.612-1.512c1.082-.083 1.357.33 2.43.504 1.127.183 1.86-1 2.979-.78 1.145.22 2.63 1.092 3.575 1.055 1.998-.073 1.888-.45 3.529-.092.696.147 1.448-1.32 2.612-1.1.596.11 2.063.23 2.063.23z"/><path fill="#82aaff" d="M21.35 22.442H1.917v-3.667s1.806-.99 2.658-1.054c1.082-.083 1.31.733 2.383.898 1.128.183 1.54-.935 2.659-.715 1.145.22 2.08 1.32 3.025 1.284 1.998-.074 2.108-1.046 3.758-.688.697.147.87.504 2.52.12 1.65-.386 2.43.155 2.43.155z"/></g><path fill="#f78c6c" d="M12.642 5.896a1.558 1.558 0 1 0-1.284 0l-.046 1.146-2.172.165a.275.275 0 0 0-.257.275v.586a.275.275 0 0 0 .257.275l2.127.165-.101 3.832c-.028 1.155-.22 2.567-1.348 2.814a2 2 0 0 1-.385.046c-.678 0-1.466-.834-1.961-1.687q.3-.132.614-.229c.119-.037.137-.202.036-.275a4.8 4.8 0 0 1-1.714-1.925c-.046-.1-.201-.11-.247 0a6 6 0 0 0-.321.825 5.7 5.7 0 0 0-.193 2.53v.055c.028.11.165.147.239.064q.23-.216.486-.403A6.61 6.61 0 0 0 12 18.5a6.61 6.61 0 0 0 5.628-4.354q.256.191.486.412a.132.132 0 0 0 .23-.064v-.037l.008-.018c.13-.85.068-1.717-.183-2.539q-.135-.425-.33-.825c-.046-.1-.201-.092-.247.01a4.8 4.8 0 0 1-1.705 1.924c-.101.073-.074.239.045.275q.305.093.596.22c-.504.862-1.283 1.696-1.961 1.696a1.8 1.8 0 0 1-.385-.046c-1.128-.247-1.32-1.659-1.348-2.814l-.1-3.832 2.126-.165a.275.275 0 0 0 .257-.275v-.586a.275.275 0 0 0-.257-.275l-2.172-.165zm.275-1.421a.917.917 0 1 1-1.834 0 .917.917 0 0 1 1.834 0"/><path fill="#916b53" d="M8.883 8.16a.183.183 0 0 0 .175.183l2.209.165.605-.605a.07.07 0 0 0 .02-.08.07.07 0 0 0-.066-.048H8.883zm8.81 2.897a.083.083 0 0 1 .118-.026q.018.013.028.035.192.405.321.834c.259.84.322 1.727.183 2.594-.018.101-.155.147-.229.064a5.2 5.2 0 0 0-1.017-.76.15.15 0 0 1-.065-.184 8.5 8.5 0 0 0 .642-2.52.1.1 0 0 1 .018-.037"/><path fill="#916b53" d="m12.642 5.85.046 1.192-.532.495A.092.092 0 0 1 12 7.472V5.85zM17.867 13c-.367 3.667-4.034 5.5-5.867 5.5V7.912a.137.137 0 0 1 .137-.137h2.98v.302a.276.276 0 0 1-.248.275l-2.136.156.101 3.832c.028 1.155.22 2.567 1.348 2.823q.186.039.375.037a.46.46 0 0 0-.33.147 3.8 3.8 0 0 1-1.704 1.31c1.97.092 4.684-1.246 5.16-5.582z"/><path fill="#916b53" d="M12.183 5.657A.2.2 0 0 0 12 5.85c0 .1.082.183.183.174.348-.042.67-.2.917-.449.293-.291.457-.687.458-1.1h-.018c-.092.623-.65 1.11-1.357 1.182"/></svg>